<svg width="64" height="90" viewBox="0 0 64 90" fill="none" xmlns="http://www.w3.org/2000/svg">
  <rect x="8" y="20" width="48" height="36" rx="4" fill="#2563EB" />
  
  <path d="M4 28L32 8L60 28L56 32L32 16L8 32L4 28Z" fill="#1E40AF" />
  
  <rect x="16" y="28" width="32" height="16" rx="2" fill="white" opacity="0.9" />
  
  <path d="M36 26L28 36H32L30 46L38 34H34L36 26Z" fill="#2563EB" stroke="#1E40AF" stroke-width="1" stroke-linejoin="round" />
  
  <circle cx="20" cy="50" r="2" fill="white" opacity="0.6" />
  <circle cx="44" cy="50" r="2" fill="white" opacity="0.6" />
  
  <line x1="20" y1="32" x2="26" y2="32" stroke="#2563EB" stroke-width="1.5" stroke-linecap="round" />
  <line x1="38" y1="32" x2="44" y2="32" stroke="#2563EB" stroke-width="1.5" stroke-linecap="round" />
  <line x1="20" y1="36" x2="24" y2="36" stroke="#2563EB" stroke-width="1.5" stroke-linecap="round" />
  <line x1="40" y1="36" x2="44" y2="36" stroke="#2563EB" stroke-width="1.5" stroke-linecap="round" />
  <line x1="20" y1="40" x2="26" y2="40" stroke="#2563EB" stroke-width="1.5" stroke-linecap="round" />
  <line x1="38" y1="40" x2="44" y2="40" stroke="#2563EB" stroke-width="1.5" stroke-linecap="round" />

  <text x="32" y="82" font-family="Arial, sans-serif" font-size="14" font-weight="bold" fill="#1E40AF" text-anchor="middle">EleTrack</text>
</svg>